<?xml version="1.0" encoding="utf-8"?>
<!-- Generator: Adobe Illustrator 25.0.1, SVG Export Plug-In . SVG Version: 6.00 Build 0)  -->
<svg version="1.1" id="Layer_1" xmlns="http://www.w3.org/2000/svg" xmlns:xlink="http://www.w3.org/1999/xlink" x="0px" y="0px"
	 viewBox="0 0 181 231.1" style="enable-background:new 0 0 181 231.1;" xml:space="preserve">
<style type="text/css">
	.st0{fill:#000001;}
</style>
<g id="a">
</g>
<g id="b">
	<g id="c">
		<path class="st0" d="M46.6,229.8c-4.7-1.1-3-8.5,1.7-7.3c6.4,2.1,14.2,1.2,20.5,0.6c16.6-2.2,32.3-7.7,47-15.2
			c16.3-9.6,59.4-36.9,51.9-58.8c-5.5-5.9-14.3,1.8-20.7-0.6c-3.9-2.5-1-6.9,1.7-9c3.7-3.9,6.9-8.1,9.9-12.5
			c15.1-29-0.5-22.3-19.4-11.3c-5.9,0.4-4.8-6.4-1.9-9.4c3.3-5.4,6.2-11,8.9-16.8c11.4-25.4,20.3-52,27-79
			c-25.8,21.3-49.9,44.8-75.2,66.7C79.6,93,59.2,106.5,40,121.5C25.8,133,11.3,146.9,7.8,165.6C4,184,19.7,206.4,39.7,198
			c11.9-2.9,21.6-14.3,18.3-26.9c-0.1-3.4-4.5-5.1-3.2-8.5c4.4-7,10.3,2.8,10.7,7.6c7.7,34-47.9,52.1-61.2,19.5
			c-18.8-42.2,28.7-72.9,58-94.1C78,84,93.6,71.6,107.9,58.5c13.1-12.2,26.2-24,39.6-35.8c7-4.8,23.9-24.4,31-22.6
			c12.5,2.7-24.2,92.5-30.2,102.2c33.4-15.8,25.8,22.3,10.2,37.5c17-3.8,22,14.7,14.9,27c-9.7,17.7-26.8,30-43,41.2
			C105.8,222.9,75.6,235.2,46.6,229.8L46.6,229.8z"/>
	</g>
</g>
</svg>
